<?xml version="1.0" encoding="UTF-8" standalone="no"?><!-- Generator: Gravit.io --><svg xmlns="http://www.w3.org/2000/svg" xmlns:xlink="http://www.w3.org/1999/xlink" style="isolation:isolate" viewBox="342 266.234 158 50" width="158pt" height="50pt"><defs><clipPath id="_clipPath_4PswGHH7kMMFTKSGEiK4sxECGbmfCPPH"><rect x="342" y="266.234" width="158" height="50"/></clipPath></defs><g clip-path="url(#_clipPath_4PswGHH7kMMFTKSGEiK4sxECGbmfCPPH)"><clipPath id="_clipPath_HRGBtH99j5tjyMKESaHQXxwULkGQ9Cj8"><rect x="342" y="266.234" width="50" height="50" transform="matrix(1,0,0,1,0,0)" fill="rgb(255,255,255)"/></clipPath><g clip-path="url(#_clipPath_HRGBtH99j5tjyMKESaHQXxwULkGQ9Cj8)"><g><g><path d=" M 369.653 280.37 C 373.132 275.688 372.427 271.192 366.852 266.82 C 360.873 271.506 360.608 276.324 364.413 280.944 C 364.975 281.602 366.852 283.385 366.852 283.385 C 366.852 283.385 368.936 283.344 372.108 284.603 C 372.108 284.603 370.668 282.08 368.598 280.294 C 366.213 278.237 363.562 274.556 366.852 271.506 C 369.072 273.565 368.585 275.912 367.301 277.851 C 367.301 277.851 367.448 278.321 369.035 279.795 C 369.265 280.009 369.445 280.209 369.653 280.37 Z " fill="rgb(255,255,255)"/><path d=" M 366.291 283.796 C 366.291 283.796 364.712 285.475 363.828 288.284 C 363.039 290.79 362.96 293.22 362.96 293.22 C 361.627 292.905 359.667 291.261 359.667 291.261 C 359.885 288.19 361.046 285.544 361.046 285.544 C 361.955 283.172 363.897 281.399 363.897 281.399 L 366.291 283.796 Z " fill="rgb(255,255,255)"/><path d=" M 355.941 288.484 C 351.26 285.006 346.763 285.709 342.393 291.286 C 347.078 297.265 351.895 297.53 356.516 293.725 C 357.173 293.162 358.955 291.286 358.955 291.286 C 358.955 291.286 358.916 289.201 360.176 286.029 C 360.176 286.029 357.652 287.47 355.866 289.54 C 353.807 291.925 350.127 294.576 347.077 291.286 C 349.136 289.065 351.483 289.552 353.424 290.836 C 353.424 290.836 353.892 290.69 355.367 289.102 C 355.579 288.873 355.781 288.692 355.941 288.484 Z " fill="rgb(255,255,255)"/><path d=" M 359.367 291.846 C 359.367 291.846 361.046 293.426 363.855 294.31 C 366.362 295.098 368.791 295.178 368.791 295.178 C 368.477 296.509 366.833 298.471 366.833 298.471 C 363.761 298.252 361.116 297.09 361.116 297.09 C 358.744 296.183 356.971 294.24 356.971 294.24 L 359.367 291.846 Z " fill="rgb(255,255,255)"/><path d=" M 364.054 302.196 C 360.577 306.877 361.281 311.375 366.858 315.746 C 372.835 311.06 373.101 306.242 369.297 301.622 C 368.735 300.964 366.858 299.182 366.858 299.182 C 366.858 299.182 364.772 299.222 361.6 297.962 C 361.6 297.962 363.041 300.485 365.111 302.271 C 367.496 304.33 370.147 308.009 366.858 311.06 C 364.637 309.001 365.123 306.654 366.408 304.714 C 366.408 304.714 366.261 304.245 364.673 302.771 C 364.445 302.558 364.264 302.356 364.054 302.196 Z " fill="rgb(255,255,255)"/><path d=" M 367.417 298.771 C 367.417 298.771 368.997 297.09 369.881 294.281 C 370.668 291.776 370.75 289.345 370.75 289.345 C 372.081 289.661 374.042 291.304 374.042 291.304 C 373.824 294.376 372.662 297.02 372.662 297.02 C 371.755 299.394 369.812 301.167 369.812 301.167 L 367.417 298.771 Z " fill="rgb(255,255,255)"/><path d=" M 377.767 294.082 C 382.449 297.56 386.946 296.857 391.316 291.28 C 386.63 285.302 381.814 285.036 377.194 288.841 C 376.536 289.404 374.753 291.28 374.753 291.28 C 374.753 291.28 374.792 293.365 373.534 296.536 C 373.534 296.536 376.057 295.097 377.843 293.025 C 379.901 290.642 383.581 287.99 386.632 291.28 C 384.572 293.501 382.226 293.013 380.285 291.729 C 380.285 291.729 379.816 291.876 378.341 293.465 C 378.129 293.692 377.928 293.874 377.767 294.082 Z " fill="rgb(255,255,255)"/><path d=" M 374.341 290.719 C 374.341 290.719 372.662 289.14 369.854 288.257 C 367.348 287.468 364.917 287.388 364.917 287.388 C 365.232 286.057 366.875 284.095 366.875 284.095 C 369.947 284.313 372.592 285.476 372.592 285.476 C 374.964 286.383 376.739 288.326 376.739 288.326 L 374.341 290.719 Z " fill="rgb(255,255,255)"/><path d=" M 347.787 286.049 C 348.616 285.785 349.499 285.641 350.415 285.641 C 350.782 285.641 351.142 285.661 351.498 285.706 C 353.146 281.168 356.757 277.565 361.296 275.92 C 361.255 275.581 361.246 275.233 361.246 274.883 C 361.246 273.949 361.39 273.05 361.665 272.206 C 354.935 274.033 349.628 279.325 347.787 286.049 Z " fill="rgb(255,255,255)"/><path d=" M 361.62 310.351 C 361.356 309.521 361.212 308.639 361.212 307.722 C 361.212 307.356 361.234 306.996 361.277 306.64 C 356.74 304.992 353.137 301.38 351.492 296.84 C 351.152 296.882 350.805 296.891 350.455 296.891 C 349.52 296.891 348.62 296.746 347.778 296.473 C 349.604 303.203 354.896 308.509 361.62 310.351 Z " fill="rgb(255,255,255)"/><path d=" M 385.922 296.518 C 385.093 296.78 384.21 296.924 383.294 296.924 C 382.927 296.924 382.567 296.904 382.212 296.859 C 380.562 301.397 376.951 305.001 372.413 306.646 C 372.453 306.985 372.463 307.333 372.463 307.683 C 372.463 308.617 372.319 309.516 372.044 310.359 C 378.774 308.534 384.081 303.241 385.922 296.518 Z " fill="rgb(255,255,255)"/><path d=" M 372.089 272.216 C 372.353 273.044 372.497 273.928 372.497 274.844 C 372.497 275.211 372.476 275.57 372.431 275.926 C 376.968 277.574 380.572 281.185 382.217 285.725 C 382.556 285.683 382.904 285.674 383.255 285.674 C 384.189 285.674 385.088 285.819 385.932 286.092 C 384.104 279.363 378.812 274.057 372.089 272.216 Z " fill="rgb(255,255,255)"/></g></g></g><path d=" M 413.845 275.985 L 413.845 275.985 L 413.845 275.985 Q 407.715 275.985 404.167 280.068 L 404.167 280.068 L 404.167 280.068 Q 400.618 284.15 400.618 291.247 L 400.618 291.247 L 400.618 291.247 Q 400.618 298.547 404.039 302.528 L 404.039 302.528 L 404.039 302.528 Q 407.461 306.509 413.795 306.509 L 413.795 306.509 L 413.795 306.509 Q 417.686 306.509 422.672 305.11 L 422.672 305.11 L 422.672 308.9 L 422.672 308.9 Q 418.806 310.35 413.133 310.35 L 413.133 310.35 L 413.133 310.35 Q 404.917 310.35 400.453 305.364 L 400.453 305.364 L 400.453 305.364 Q 395.989 300.379 395.989 291.196 L 395.989 291.196 L 395.989 291.196 Q 395.989 285.447 398.138 281.123 L 398.138 281.123 L 398.138 281.123 Q 400.288 276.799 404.345 274.459 L 404.345 274.459 L 404.345 274.459 Q 408.402 272.119 413.896 272.119 L 413.896 272.119 L 413.896 272.119 Q 419.747 272.119 424.122 274.255 L 424.122 274.255 L 422.29 277.969 L 422.29 277.969 Q 418.068 275.985 413.845 275.985 Z  M 473.19 272.653 L 463.244 309.841 L 458.97 309.841 L 451.466 284.939 L 451.466 284.939 Q 450.932 283.285 450.271 280.767 L 450.271 280.767 L 450.271 280.767 Q 449.61 278.249 449.584 277.74 L 449.584 277.74 L 449.584 277.74 Q 449.025 281.098 447.804 285.091 L 447.804 285.091 L 440.529 309.841 L 436.255 309.841 L 426.36 272.653 L 430.939 272.653 L 436.815 295.622 L 436.815 295.622 Q 438.036 300.455 438.595 304.372 L 438.595 304.372 L 438.595 304.372 Q 439.282 299.717 440.63 295.266 L 440.63 295.266 L 447.295 272.653 L 451.873 272.653 L 458.869 295.47 L 458.869 295.47 Q 460.09 299.412 460.929 304.372 L 460.929 304.372 L 460.929 304.372 Q 461.412 300.76 462.76 295.571 L 462.76 295.571 L 468.611 272.653 L 473.19 272.653 Z  M 500 299.946 L 500 299.946 L 500 299.946 Q 500 304.856 496.439 307.603 L 496.439 307.603 L 496.439 307.603 Q 492.878 310.35 486.773 310.35 L 486.773 310.35 L 486.773 310.35 Q 480.159 310.35 476.598 308.646 L 476.598 308.646 L 476.598 304.474 L 476.598 304.474 Q 478.887 305.441 481.584 306 L 481.584 306 L 481.584 306 Q 484.28 306.56 486.925 306.56 L 486.925 306.56 L 486.925 306.56 Q 491.25 306.56 493.437 304.919 L 493.437 304.919 L 493.437 304.919 Q 495.625 303.279 495.625 300.353 L 495.625 300.353 L 495.625 300.353 Q 495.625 298.42 494.849 297.187 L 494.849 297.187 L 494.849 297.187 Q 494.073 295.953 492.254 294.91 L 492.254 294.91 L 492.254 294.91 Q 490.436 293.867 486.722 292.544 L 486.722 292.544 L 486.722 292.544 Q 481.533 290.687 479.307 288.144 L 479.307 288.144 L 479.307 288.144 Q 477.081 285.6 477.081 281.505 L 477.081 281.505 L 477.081 281.505 Q 477.081 277.206 480.312 274.662 L 480.312 274.662 L 480.312 274.662 Q 483.542 272.119 488.859 272.119 L 488.859 272.119 L 488.859 272.119 Q 494.404 272.119 499.059 274.153 L 499.059 274.153 L 497.711 277.918 L 497.711 277.918 Q 493.107 275.985 488.757 275.985 L 488.757 275.985 L 488.757 275.985 Q 485.323 275.985 483.39 277.46 L 483.39 277.46 L 483.39 277.46 Q 481.457 278.936 481.457 281.556 L 481.457 281.556 L 481.457 281.556 Q 481.457 283.489 482.169 284.722 L 482.169 284.722 L 482.169 284.722 Q 482.881 285.956 484.573 286.986 L 484.573 286.986 L 484.573 286.986 Q 486.264 288.017 489.749 289.263 L 489.749 289.263 L 489.749 289.263 Q 495.599 291.349 497.8 293.74 L 497.8 293.74 L 497.8 293.74 Q 500 296.131 500 299.946 Z " fill="rgb(255,255,255)"/></g></svg>